<svg width="53" height="75" viewBox="0 0 53 75" fill="none" xmlns="http://www.w3.org/2000/svg">
<path d="M18.75 64.125H33.75V60.75H18.75V64.125ZM7.5 74.25C5.4375 74.25 3.6725 73.5896 2.205 72.2689C0.734999 70.9459 0 69.3562 0 67.5V6.75C0 4.89375 0.734999 3.30412 2.205 1.98112C3.6725 0.660375 5.4375 0 7.5 0H45C47.0625 0 48.8287 0.660375 50.2987 1.98112C51.7662 3.30412 52.5 4.89375 52.5 6.75V67.5C52.5 69.3562 51.7662 70.9459 50.2987 72.2689C48.8287 73.5896 47.0625 74.25 45 74.25H7.5ZM7.5 57.375V67.5H45V57.375H7.5ZM7.5 50.625H45V16.875H7.5V50.625ZM7.5 10.125H45V6.75H7.5V10.125Z" fill="black"/>
</svg>
